<svg xmlns="http://www.w3.org/2000/svg" xmlns:xlink="http://www.w3.org/1999/xlink" width="500" zoomAndPan="magnify" viewBox="0 0 375 374.999991" height="500" preserveAspectRatio="xMidYMid meet" version="1.2"><g id="6fddacc39f"><rect x="0" width="375" y="0" height="374.999991" style="fill:#ffffff;fill-opacity:1;stroke:none;"/><rect x="0" width="375" y="0" height="374.999991" style="fill:#fff200;fill-opacity:1;stroke:none;"/><path style=" stroke:none;fill-rule:evenodd;fill:#fff200;fill-opacity:1;" d="M 70.535156 304.464844 L 304.464844 304.464844 L 304.464844 70.535156 L 70.535156 70.535156 Z M 70.535156 304.464844 "/><path style=" stroke:none;fill-rule:evenodd;fill:#1a5dad;fill-opacity:1;" d="M 244.347656 117.988281 L 263.929688 131.40625 L 283.09375 118.597656 L 283.148438 92.289062 Z M 131.117188 257.421875 L 111.605469 244.117188 L 91.875 257.445312 L 92.070312 283.230469 Z M 205.222656 143.613281 L 224.347656 156.480469 L 133.480469 217.960938 L 189.628906 255.855469 L 216 237.984375 L 195.515625 224.417969 L 242.789062 192.730469 L 282.34375 218.972656 L 186.78125 282.675781 L 92.488281 219.417969 Z M 169.429688 230.832031 L 150.304688 217.96875 L 241.171875 156.488281 L 185.023438 118.589844 L 158.65625 136.460938 L 179.136719 150.03125 L 131.863281 181.714844 L 92.308594 155.472656 L 187.53125 91.769531 L 282.074219 155.308594 Z M 169.429688 230.832031 "/></g></svg>