<svg xmlns="http://www.w3.org/2000/svg" xmlns:xlink="http://www.w3.org/1999/xlink" width="500" zoomAndPan="magnify" viewBox="0 0 375 374.999991" height="500" preserveAspectRatio="xMidYMid meet" version="1.2"><defs><clipPath id="be11407c91"><path d="M 135 46 L 359.484375 46 L 359.484375 178 L 135 178 Z M 135 46 "/></clipPath><clipPath id="df8d4f8edb"><path d="M 15.234375 197 L 240 197 L 240 330.488281 L 15.234375 330.488281 Z M 15.234375 197 "/></clipPath><clipPath id="05fd620856"><path d="M 58 44.738281 L 248 44.738281 L 248 178 L 58 178 Z M 58 44.738281 "/></clipPath></defs><g id="e883cf6657"><rect x="0" width="375" y="0" height="374.999991" style="fill:#ffffff;fill-opacity:1;stroke:none;"/><rect x="0" width="375" y="0" height="374.999991" style="fill:#ffffff;fill-opacity:1;stroke:none;"/><path style=" stroke:none;fill-rule:nonzero;fill:#0070af;fill-opacity:1;" d="M 123.253906 197.753906 L 239.226562 197.753906 L 318.671875 329.578125 L 202.695312 329.578125 L 123.253906 197.753906 "/><g clip-rule="nonzero" clip-path="url(#be11407c91)"><path style=" stroke:none;fill-rule:nonzero;fill:#f6822a;fill-opacity:1;" d="M 135.296875 177.460938 L 255.179688 177.460938 L 359.269531 46.199219 L 239.386719 46.199219 L 135.296875 177.460938 "/></g><g clip-rule="nonzero" clip-path="url(#df8d4f8edb)"><path style=" stroke:none;fill-rule:nonzero;fill:#f6822a;fill-opacity:1;" d="M 15.414062 330.375 L 135.296875 330.375 L 239.386719 197.515625 L 119.503906 197.515625 L 15.414062 330.375 "/></g><g clip-rule="nonzero" clip-path="url(#05fd620856)"><path style=" stroke:none;fill-rule:nonzero;fill:#0070af;fill-opacity:1;" d="M 58.644531 44.601562 L 170.472656 44.601562 L 247.125 177.460938 L 135.21875 177.460938 L 58.644531 44.601562 "/></g></g></svg>