<svg xmlns="http://www.w3.org/2000/svg" xmlns:xlink="http://www.w3.org/1999/xlink" width="40" zoomAndPan="magnify" viewBox="0 0 30 30.000001" height="40" preserveAspectRatio="xMidYMid meet" version="1.2"><defs><clipPath id="c6408a5006"><path d="M 0.484375 0 L 29.515625 0 L 29.515625 29.03125 L 0.484375 29.03125 Z M 0.484375 0 "/></clipPath></defs><g id="73003edb6f"><g clip-rule="nonzero" clip-path="url(#c6408a5006)"><path style=" stroke:none;fill-rule:nonzero;fill:#ffffff;fill-opacity:1;" d="M 0.484375 0 L 29.515625 0 L 29.515625 29.03125 L 0.484375 29.03125 Z M 0.484375 0 "/><path style=" stroke:none;fill-rule:nonzero;fill:#fff200;fill-opacity:1;" d="M 0.484375 0 L 29.515625 0 L 29.515625 29.03125 L 0.484375 29.03125 Z M 0.484375 0 "/></g><path style=" stroke:none;fill-rule:evenodd;fill:#fff200;fill-opacity:1;" d="M 5.945312 23.570312 L 24.054688 23.570312 L 24.054688 5.460938 L 5.945312 5.460938 Z M 5.945312 23.570312 "/><path style=" stroke:none;fill-rule:evenodd;fill:#1a5dad;fill-opacity:1;" d="M 19.402344 9.132812 L 20.917969 10.171875 L 22.402344 9.183594 L 22.40625 7.144531 Z M 10.636719 19.929688 L 9.125 18.898438 L 7.597656 19.929688 L 7.613281 21.925781 Z M 16.371094 11.117188 L 17.851562 12.113281 L 10.816406 16.875 L 15.164062 19.808594 L 17.207031 18.425781 L 15.621094 17.375 L 19.28125 14.921875 L 22.34375 16.953125 L 14.945312 21.882812 L 7.644531 16.988281 Z M 13.601562 17.871094 L 12.121094 16.875 L 19.15625 12.113281 L 14.808594 9.179688 L 12.765625 10.566406 L 14.351562 11.617188 L 10.691406 14.066406 L 7.628906 12.035156 L 15.003906 7.105469 L 22.320312 12.023438 Z M 13.601562 17.871094 "/></g></svg>