<svg xmlns="http://www.w3.org/2000/svg" xmlns:xlink="http://www.w3.org/1999/xlink" width="40" zoomAndPan="magnify" viewBox="0 0 30 30.000001" height="40" preserveAspectRatio="xMidYMid meet" version="1.2"><defs><clipPath id="4e240add0a"><path d="M 0.484375 0 L 29.515625 0 L 29.515625 29.03125 L 0.484375 29.03125 Z M 0.484375 0 "/></clipPath></defs><g id="359efaa1e7"><g clip-rule="nonzero" clip-path="url(#4e240add0a)"><path style=" stroke:none;fill-rule:nonzero;fill:#ffffff;fill-opacity:1;" d="M 0.484375 0 L 29.515625 0 L 29.515625 29.03125 L 0.484375 29.03125 Z M 0.484375 0 "/><path style=" stroke:none;fill-rule:nonzero;fill:#ffffff;fill-opacity:1;" d="M 0.484375 0 L 29.515625 0 L 29.515625 29.03125 L 0.484375 29.03125 Z M 0.484375 0 "/></g><path style=" stroke:none;fill-rule:nonzero;fill:#ff6200;fill-opacity:1;" d="M 13.628906 4.300781 C 13.023438 4.316406 12.578125 4.335938 11.761719 4.386719 C 11.386719 4.410156 10.976562 4.441406 10.683594 4.472656 C 10.613281 4.480469 10.460938 4.492188 10.347656 4.503906 C 9.875 4.550781 9.175781 4.640625 8.878906 4.6875 C 8.816406 4.699219 8.726562 4.714844 8.675781 4.722656 C 8.625 4.730469 8.535156 4.746094 8.476562 4.753906 C 8.417969 4.765625 8.320312 4.785156 8.257812 4.796875 C 8.039062 4.832031 7.667969 4.90625 7.457031 4.957031 C 7.398438 4.972656 7.296875 4.996094 7.226562 5.011719 C 7.160156 5.027344 7.097656 5.042969 7.089844 5.046875 C 6.699219 5.136719 6.316406 5.324219 6.019531 5.566406 C 5.730469 5.800781 5.472656 6.179688 5.34375 6.554688 C 5.324219 6.613281 5.300781 6.671875 5.296875 6.6875 C 5.273438 6.734375 5.175781 7.160156 5.105469 7.507812 C 5.09375 7.5625 5.074219 7.648438 5.066406 7.699219 C 5.054688 7.746094 5.039062 7.828125 5.03125 7.882812 C 5.023438 7.9375 5.011719 8.003906 5.003906 8.027344 C 4.984375 8.105469 4.90625 8.621094 4.855469 8.992188 C 4.804688 9.355469 4.769531 9.617188 4.742188 9.886719 C 4.726562 10.015625 4.710938 10.144531 4.710938 10.171875 C 4.707031 10.195312 4.695312 10.324219 4.683594 10.453125 C 4.671875 10.585938 4.65625 10.746094 4.648438 10.8125 C 4.621094 11.054688 4.550781 12.113281 4.515625 12.863281 C 4.488281 13.414062 4.472656 14.601562 4.480469 15.25 C 4.492188 16.054688 4.511719 16.777344 4.53125 17.027344 C 4.535156 17.128906 4.550781 17.34375 4.558594 17.503906 C 4.566406 17.664062 4.574219 17.867188 4.582031 17.960938 C 4.613281 18.417969 4.636719 18.71875 4.648438 18.8125 C 4.65625 18.871094 4.671875 19.023438 4.683594 19.15625 C 4.691406 19.285156 4.707031 19.4375 4.714844 19.5 C 4.722656 19.558594 4.738281 19.6875 4.746094 19.785156 C 4.78125 20.097656 4.804688 20.300781 4.828125 20.4375 C 4.835938 20.511719 4.855469 20.636719 4.867188 20.714844 C 4.90625 21.007812 4.949219 21.289062 5 21.550781 C 5.007812 21.609375 5.027344 21.707031 5.039062 21.765625 C 5.0625 21.898438 5.113281 22.164062 5.148438 22.328125 C 5.277344 22.914062 5.332031 23.085938 5.480469 23.375 C 5.523438 23.453125 5.574219 23.546875 5.597656 23.578125 C 5.621094 23.613281 5.65625 23.660156 5.671875 23.683594 C 5.746094 23.796875 5.964844 24.015625 6.082031 24.101562 C 6.101562 24.117188 6.140625 24.144531 6.164062 24.164062 C 6.191406 24.183594 6.21875 24.199219 6.222656 24.199219 C 6.230469 24.199219 6.242188 24.210938 6.253906 24.21875 C 6.304688 24.269531 6.667969 24.445312 6.824219 24.492188 C 6.851562 24.5 6.886719 24.511719 6.902344 24.519531 C 6.9375 24.535156 7.132812 24.582031 7.367188 24.636719 C 7.46875 24.660156 7.574219 24.683594 7.597656 24.691406 C 7.660156 24.707031 8.042969 24.785156 8.332031 24.835938 C 8.496094 24.867188 8.820312 24.917969 9.027344 24.949219 C 9.101562 24.957031 9.199219 24.972656 9.242188 24.980469 C 9.402344 25.007812 10.066406 25.085938 10.480469 25.125 C 10.628906 25.140625 10.8125 25.15625 10.890625 25.164062 C 11.015625 25.179688 11.140625 25.1875 11.75 25.230469 C 11.839844 25.238281 12.046875 25.25 12.210938 25.257812 C 12.375 25.265625 12.605469 25.277344 12.722656 25.285156 C 13.664062 25.339844 16.355469 25.339844 17.285156 25.285156 C 17.398438 25.277344 17.628906 25.265625 17.792969 25.257812 C 18.074219 25.246094 18.179688 25.238281 18.621094 25.207031 C 19.183594 25.160156 20.015625 25.082031 20.296875 25.042969 C 20.378906 25.03125 20.519531 25.011719 20.609375 25 C 20.945312 24.957031 21.410156 24.886719 21.675781 24.835938 C 21.964844 24.785156 22.347656 24.707031 22.40625 24.691406 C 22.433594 24.683594 22.539062 24.660156 22.640625 24.636719 C 22.867188 24.585938 23.066406 24.535156 23.101562 24.519531 C 23.144531 24.503906 23.191406 24.488281 23.234375 24.472656 C 23.34375 24.4375 23.703125 24.265625 23.734375 24.238281 C 23.742188 24.226562 23.769531 24.207031 23.792969 24.195312 C 23.894531 24.128906 23.941406 24.09375 24.035156 24.007812 C 24.140625 23.910156 24.289062 23.753906 24.324219 23.699219 C 24.335938 23.679688 24.367188 23.632812 24.394531 23.597656 C 24.421875 23.5625 24.445312 23.527344 24.445312 23.523438 C 24.445312 23.519531 24.464844 23.480469 24.492188 23.441406 C 24.515625 23.402344 24.546875 23.34375 24.558594 23.3125 C 24.570312 23.28125 24.585938 23.25 24.589844 23.242188 C 24.613281 23.207031 24.707031 22.945312 24.746094 22.796875 C 24.808594 22.566406 24.925781 22.019531 24.96875 21.761719 C 24.980469 21.695312 24.992188 21.632812 24.996094 21.621094 C 25.007812 21.59375 25.078125 21.140625 25.144531 20.675781 C 25.160156 20.574219 25.175781 20.472656 25.179688 20.453125 C 25.1875 20.390625 25.238281 19.984375 25.257812 19.769531 C 25.269531 19.664062 25.28125 19.542969 25.289062 19.5 C 25.296875 19.457031 25.3125 19.3125 25.324219 19.183594 C 25.335938 19.050781 25.347656 18.890625 25.355469 18.824219 C 25.363281 18.757812 25.375 18.609375 25.382812 18.488281 C 25.390625 18.367188 25.402344 18.21875 25.410156 18.15625 C 25.417969 18.09375 25.433594 17.867188 25.441406 17.648438 C 25.453125 17.429688 25.46875 17.160156 25.476562 17.054688 C 25.535156 16.09375 25.535156 13.570312 25.476562 12.578125 C 25.46875 12.464844 25.457031 12.242188 25.449219 12.085938 C 25.441406 11.933594 25.429688 11.726562 25.421875 11.632812 C 25.414062 11.535156 25.398438 11.300781 25.382812 11.109375 C 25.367188 10.917969 25.355469 10.734375 25.351562 10.707031 C 25.347656 10.675781 25.335938 10.546875 25.324219 10.421875 C 25.3125 10.292969 25.300781 10.175781 25.296875 10.15625 C 25.292969 10.140625 25.277344 10.015625 25.265625 9.886719 C 25.230469 9.570312 25.1875 9.222656 25.179688 9.179688 C 25.175781 9.160156 25.160156 9.054688 25.144531 8.945312 C 25.082031 8.453125 24.960938 7.765625 24.855469 7.292969 C 24.84375 7.226562 24.820312 7.121094 24.804688 7.054688 C 24.765625 6.886719 24.722656 6.714844 24.707031 6.6875 C 24.703125 6.671875 24.691406 6.636719 24.679688 6.605469 C 24.652344 6.507812 24.503906 6.183594 24.46875 6.128906 C 24.460938 6.121094 24.421875 6.0625 24.375 5.992188 C 24.28125 5.851562 24.042969 5.597656 23.898438 5.492188 C 23.613281 5.28125 23.292969 5.140625 22.882812 5.039062 C 22.8125 5.023438 22.742188 5.003906 22.671875 4.988281 C 22.625 4.972656 22.527344 4.949219 22.316406 4.90625 C 22.253906 4.894531 22.195312 4.882812 22.136719 4.867188 C 21.882812 4.808594 21.050781 4.671875 20.511719 4.601562 C 20.402344 4.589844 20.292969 4.574219 20.273438 4.570312 C 20.234375 4.5625 20.039062 4.542969 19.652344 4.503906 C 19.542969 4.492188 19.394531 4.476562 19.320312 4.472656 C 19.246094 4.464844 19.117188 4.453125 19.03125 4.441406 C 18.941406 4.4375 18.800781 4.425781 18.710938 4.417969 C 18.414062 4.394531 17.59375 4.34375 17.136719 4.324219 C 16.257812 4.289062 14.636719 4.273438 13.628906 4.300781 Z M 7.800781 13.234375 C 7.808594 13.242188 7.847656 13.253906 7.886719 13.261719 C 7.957031 13.28125 8.058594 13.328125 8.132812 13.378906 C 8.191406 13.417969 8.332031 13.566406 8.359375 13.621094 C 8.375 13.648438 8.386719 13.671875 8.390625 13.675781 C 8.394531 13.679688 8.40625 13.707031 8.417969 13.734375 C 8.429688 13.761719 8.441406 13.792969 8.445312 13.800781 C 8.464844 13.824219 8.484375 13.984375 8.484375 14.097656 C 8.484375 14.214844 8.464844 14.347656 8.445312 14.394531 C 8.371094 14.558594 8.339844 14.613281 8.25 14.707031 C 8.164062 14.792969 8.128906 14.820312 8.015625 14.875 C 7.925781 14.921875 7.859375 14.945312 7.804688 14.953125 C 7.761719 14.957031 7.726562 14.964844 7.722656 14.972656 C 7.710938 14.988281 7.425781 14.988281 7.425781 14.972656 C 7.425781 14.964844 7.390625 14.957031 7.351562 14.953125 C 7.308594 14.945312 7.257812 14.933594 7.234375 14.925781 C 7.207031 14.914062 7.175781 14.902344 7.148438 14.890625 C 7.121094 14.878906 7.097656 14.871094 7.09375 14.867188 C 7.089844 14.859375 7.070312 14.847656 7.046875 14.839844 C 6.972656 14.800781 6.8125 14.625 6.765625 14.527344 C 6.742188 14.476562 6.71875 14.425781 6.710938 14.414062 C 6.667969 14.324219 6.660156 13.914062 6.699219 13.820312 C 6.710938 13.796875 6.730469 13.753906 6.738281 13.726562 C 6.75 13.703125 6.757812 13.679688 6.761719 13.675781 C 6.765625 13.671875 6.78125 13.644531 6.796875 13.613281 C 6.824219 13.566406 6.980469 13.398438 7.003906 13.398438 C 7.007812 13.398438 7.019531 13.386719 7.027344 13.375 C 7.054688 13.347656 7.183594 13.285156 7.261719 13.265625 C 7.296875 13.257812 7.339844 13.242188 7.351562 13.238281 C 7.367188 13.230469 7.402344 13.222656 7.433594 13.21875 C 7.511719 13.210938 7.785156 13.222656 7.800781 13.234375 Z M 22.210938 14.15625 L 22.210938 14.824219 L 19.644531 14.824219 L 19.644531 13.929688 L 19.785156 13.910156 C 20.101562 13.859375 20.300781 13.828125 20.3125 13.820312 C 20.320312 13.8125 20.382812 13.804688 20.457031 13.792969 C 20.53125 13.785156 20.597656 13.773438 20.601562 13.765625 C 20.609375 13.761719 20.671875 13.75 20.742188 13.742188 C 20.808594 13.734375 20.898438 13.71875 20.941406 13.707031 C 20.980469 13.695312 21.0625 13.683594 21.125 13.675781 C 21.1875 13.667969 21.25 13.65625 21.265625 13.648438 C 21.277344 13.644531 21.34375 13.632812 21.410156 13.621094 C 21.476562 13.613281 21.550781 13.601562 21.574219 13.59375 C 21.601562 13.585938 21.695312 13.570312 21.785156 13.554688 C 21.878906 13.539062 21.996094 13.519531 22.050781 13.511719 C 22.105469 13.5 22.164062 13.492188 22.179688 13.492188 L 22.210938 13.488281 Z M 11.261719 14.746094 L 11.261719 15.539062 L 12.582031 15.539062 L 12.582031 16.714844 L 11.257812 16.714844 L 11.265625 17.941406 C 11.269531 19.261719 11.265625 19.199219 11.335938 19.359375 C 11.390625 19.488281 11.542969 19.613281 11.675781 19.648438 C 11.699219 19.652344 11.722656 19.664062 11.734375 19.671875 C 11.761719 19.691406 12.296875 19.691406 12.320312 19.667969 C 12.332031 19.660156 12.378906 19.652344 12.429688 19.644531 L 12.515625 19.636719 L 12.515625 20.796875 L 12.480469 20.8125 C 12.449219 20.824219 12.296875 20.851562 12.085938 20.875 C 11.789062 20.910156 11.246094 20.914062 11.214844 20.878906 C 11.207031 20.875 11.1875 20.867188 11.167969 20.867188 C 11.113281 20.867188 10.902344 20.828125 10.886719 20.816406 C 10.875 20.8125 10.839844 20.796875 10.804688 20.789062 C 10.769531 20.78125 10.734375 20.769531 10.726562 20.765625 C 10.71875 20.757812 10.6875 20.746094 10.660156 20.734375 C 10.628906 20.726562 10.601562 20.714844 10.597656 20.710938 C 10.59375 20.707031 10.570312 20.691406 10.546875 20.679688 C 10.4375 20.621094 10.402344 20.597656 10.34375 20.550781 C 10.3125 20.523438 10.277344 20.5 10.273438 20.5 C 10.257812 20.496094 10.160156 20.386719 10.078125 20.285156 C 10.019531 20.207031 9.929688 20.058594 9.898438 19.980469 C 9.886719 19.957031 9.875 19.933594 9.871094 19.929688 C 9.867188 19.925781 9.851562 19.882812 9.839844 19.835938 C 9.828125 19.789062 9.8125 19.738281 9.804688 19.722656 C 9.800781 19.710938 9.785156 19.652344 9.773438 19.59375 C 9.761719 19.535156 9.75 19.480469 9.738281 19.425781 C 9.726562 19.386719 9.722656 18.921875 9.71875 18.042969 L 9.710938 16.714844 L 8.945312 16.714844 L 8.945312 15.539062 L 9.714844 15.539062 L 9.714844 14.207031 L 9.804688 14.195312 C 9.851562 14.191406 9.898438 14.183594 9.90625 14.175781 C 9.914062 14.171875 9.976562 14.160156 10.050781 14.152344 C 10.125 14.140625 10.1875 14.128906 10.195312 14.121094 C 10.203125 14.117188 10.289062 14.101562 10.382812 14.089844 C 10.476562 14.078125 10.558594 14.0625 10.566406 14.058594 C 10.574219 14.054688 10.617188 14.042969 10.664062 14.039062 C 10.726562 14.03125 10.789062 14.023438 10.851562 14.007812 C 10.992188 13.980469 11.238281 13.941406 11.25 13.949219 C 11.257812 13.949219 11.261719 14.3125 11.261719 14.746094 Z M 15.644531 15.414062 C 15.828125 15.425781 16.039062 15.449219 16.054688 15.460938 C 16.0625 15.464844 16.09375 15.472656 16.125 15.476562 C 16.203125 15.492188 16.386719 15.542969 16.496094 15.589844 C 16.589844 15.625 16.796875 15.730469 16.828125 15.757812 C 16.839844 15.765625 16.863281 15.78125 16.878906 15.789062 C 16.898438 15.796875 16.957031 15.84375 17.007812 15.886719 C 17.058594 15.933594 17.109375 15.972656 17.113281 15.976562 C 17.132812 15.984375 17.371094 16.273438 17.371094 16.289062 C 17.371094 16.292969 17.382812 16.3125 17.394531 16.332031 C 17.425781 16.371094 17.542969 16.601562 17.542969 16.617188 C 17.542969 16.621094 17.550781 16.648438 17.566406 16.679688 C 17.578125 16.710938 17.597656 16.757812 17.601562 16.78125 C 17.605469 16.808594 17.617188 16.832031 17.621094 16.839844 C 17.625 16.847656 17.636719 16.890625 17.648438 16.933594 C 17.65625 16.976562 17.664062 17.023438 17.671875 17.035156 C 17.675781 17.042969 17.6875 17.101562 17.699219 17.160156 C 17.714844 17.246094 17.71875 17.574219 17.722656 19.03125 L 17.726562 20.800781 L 16.285156 20.800781 L 16.285156 20.644531 C 16.28125 20.5625 16.277344 20.4375 16.273438 20.375 L 16.265625 20.253906 L 16.226562 20.308594 C 16.167969 20.386719 15.964844 20.578125 15.886719 20.632812 C 15.714844 20.746094 15.667969 20.773438 15.621094 20.789062 C 15.589844 20.796875 15.554688 20.8125 15.535156 20.824219 C 15.515625 20.832031 15.464844 20.847656 15.425781 20.855469 C 15.386719 20.867188 15.347656 20.878906 15.339844 20.882812 C 15.273438 20.933594 14.4375 20.933594 14.375 20.882812 C 14.367188 20.875 14.320312 20.863281 14.269531 20.855469 C 14.21875 20.847656 14.160156 20.832031 14.136719 20.820312 C 14.117188 20.8125 14.058594 20.789062 14.011719 20.769531 C 13.960938 20.746094 13.90625 20.71875 13.855469 20.691406 C 13.820312 20.671875 13.785156 20.648438 13.75 20.628906 C 13.695312 20.601562 13.675781 20.582031 13.523438 20.433594 C 13.371094 20.277344 13.351562 20.257812 13.351562 20.242188 C 13.351562 20.234375 13.332031 20.207031 13.3125 20.175781 C 13.292969 20.144531 13.261719 20.089844 13.246094 20.054688 C 13.230469 20.019531 13.207031 19.972656 13.199219 19.957031 C 13.1875 19.9375 13.175781 19.890625 13.164062 19.851562 C 13.15625 19.808594 13.144531 19.769531 13.136719 19.765625 C 13.125 19.746094 13.097656 19.558594 13.097656 19.476562 C 13.097656 19.4375 13.09375 19.398438 13.085938 19.390625 C 13.066406 19.375 13.070312 19.324219 13.113281 19.003906 C 13.121094 18.941406 13.132812 18.882812 13.136719 18.878906 C 13.144531 18.871094 13.15625 18.835938 13.164062 18.800781 C 13.179688 18.730469 13.214844 18.640625 13.253906 18.574219 C 13.265625 18.550781 13.28125 18.519531 13.289062 18.503906 C 13.296875 18.488281 13.308594 18.476562 13.3125 18.476562 C 13.320312 18.476562 13.324219 18.46875 13.324219 18.457031 C 13.324219 18.441406 13.46875 18.253906 13.492188 18.238281 C 13.5 18.234375 13.507812 18.21875 13.511719 18.207031 C 13.519531 18.191406 13.535156 18.179688 13.546875 18.175781 C 13.5625 18.171875 13.574219 18.164062 13.574219 18.15625 C 13.574219 18.144531 13.796875 17.96875 13.871094 17.925781 C 13.925781 17.894531 14.046875 17.832031 14.226562 17.746094 C 14.25 17.734375 14.496094 17.652344 14.605469 17.625 C 14.644531 17.613281 14.722656 17.59375 14.777344 17.585938 C 14.832031 17.578125 14.882812 17.566406 14.890625 17.5625 C 14.898438 17.558594 14.976562 17.546875 15.070312 17.539062 C 15.160156 17.53125 15.273438 17.515625 15.320312 17.507812 C 15.507812 17.480469 16.167969 17.488281 16.238281 17.515625 C 16.261719 17.527344 16.261719 17.519531 16.253906 17.410156 C 16.25 17.34375 16.238281 17.289062 16.234375 17.285156 C 16.226562 17.28125 16.21875 17.253906 16.214844 17.230469 C 16.203125 17.179688 16.15625 17.074219 16.105469 17 C 16.078125 16.953125 15.949219 16.820312 15.933594 16.820312 C 15.929688 16.820312 15.90625 16.808594 15.882812 16.792969 C 15.824219 16.75 15.730469 16.707031 15.675781 16.695312 C 15.648438 16.691406 15.625 16.683594 15.625 16.675781 C 15.625 16.617188 14.769531 16.609375 14.511719 16.664062 C 14.480469 16.671875 14.402344 16.6875 14.339844 16.699219 C 14.28125 16.707031 14.21875 16.722656 14.203125 16.730469 C 14.1875 16.734375 14.140625 16.746094 14.097656 16.753906 C 14.054688 16.765625 14.003906 16.777344 13.992188 16.78125 C 13.976562 16.789062 13.921875 16.804688 13.875 16.816406 C 13.824219 16.828125 13.777344 16.839844 13.769531 16.847656 C 13.757812 16.851562 13.722656 16.867188 13.6875 16.875 C 13.652344 16.882812 13.613281 16.898438 13.609375 16.902344 C 13.601562 16.90625 13.5625 16.917969 13.527344 16.929688 C 13.492188 16.9375 13.441406 16.957031 13.414062 16.96875 C 13.386719 16.984375 13.359375 16.992188 13.355469 16.992188 C 13.351562 16.992188 13.351562 16.71875 13.351562 16.378906 C 13.351562 15.902344 13.355469 15.765625 13.367188 15.753906 C 13.375 15.746094 13.414062 15.730469 13.449219 15.722656 C 13.484375 15.714844 13.523438 15.703125 13.527344 15.699219 C 13.535156 15.691406 13.578125 15.675781 13.628906 15.664062 C 13.675781 15.652344 13.71875 15.636719 13.726562 15.632812 C 13.734375 15.625 13.777344 15.613281 13.816406 15.605469 C 13.863281 15.597656 13.90625 15.585938 13.917969 15.578125 C 13.929688 15.574219 13.984375 15.558594 14.039062 15.546875 C 14.078125 15.539062 14.121094 15.527344 14.164062 15.519531 C 14.175781 15.515625 14.25 15.503906 14.328125 15.492188 C 14.40625 15.480469 14.484375 15.464844 14.507812 15.460938 C 14.582031 15.4375 15.277344 15.390625 15.433594 15.402344 C 15.476562 15.402344 15.570312 15.410156 15.644531 15.414062 Z M 8.351562 18.171875 L 8.351562 20.800781 L 6.804688 20.800781 L 6.804688 15.539062 L 8.351562 15.539062 Z M 20.039062 17.179688 C 20.039062 18.746094 20.046875 19.046875 20.078125 19.089844 C 20.085938 19.097656 20.09375 19.121094 20.097656 19.148438 C 20.117188 19.246094 20.203125 19.390625 20.300781 19.488281 C 20.351562 19.542969 20.410156 19.589844 20.429688 19.59375 C 20.449219 19.597656 20.464844 19.605469 20.464844 19.609375 C 20.464844 19.617188 20.511719 19.632812 20.566406 19.652344 C 20.652344 19.679688 20.695312 19.683594 20.828125 19.683594 C 20.921875 19.683594 21.003906 19.679688 21.019531 19.671875 C 21.039062 19.660156 21.078125 19.648438 21.113281 19.636719 C 21.144531 19.628906 21.203125 19.601562 21.246094 19.574219 C 21.316406 19.527344 21.457031 19.402344 21.457031 19.378906 C 21.457031 19.371094 21.472656 19.34375 21.496094 19.316406 C 21.519531 19.285156 21.535156 19.257812 21.535156 19.25 C 21.535156 19.242188 21.546875 19.214844 21.558594 19.1875 C 21.574219 19.160156 21.589844 19.117188 21.597656 19.089844 C 21.601562 19.058594 21.609375 19.03125 21.617188 19.023438 C 21.648438 18.980469 21.652344 18.714844 21.652344 17.164062 L 21.652344 15.539062 L 23.203125 15.539062 L 23.203125 20.800781 L 22.46875 20.800781 C 21.894531 20.800781 21.730469 20.796875 21.722656 20.785156 C 21.71875 20.777344 21.710938 20.652344 21.710938 20.507812 C 21.707031 20.363281 21.699219 20.246094 21.695312 20.246094 C 21.691406 20.246094 21.675781 20.261719 21.660156 20.28125 C 21.585938 20.382812 21.46875 20.496094 21.285156 20.648438 C 21.257812 20.667969 21.203125 20.699219 21.085938 20.757812 C 21.03125 20.78125 20.972656 20.8125 20.953125 20.820312 C 20.933594 20.832031 20.882812 20.847656 20.839844 20.855469 C 20.796875 20.863281 20.757812 20.875 20.753906 20.882812 C 20.742188 20.902344 20.507812 20.921875 20.277344 20.921875 C 20.050781 20.921875 19.863281 20.90625 19.808594 20.882812 C 19.796875 20.875 19.746094 20.859375 19.695312 20.847656 C 19.648438 20.835938 19.605469 20.820312 19.597656 20.816406 C 19.589844 20.808594 19.558594 20.796875 19.527344 20.789062 C 19.496094 20.78125 19.472656 20.769531 19.472656 20.761719 C 19.472656 20.757812 19.449219 20.746094 19.417969 20.734375 C 19.390625 20.726562 19.367188 20.714844 19.367188 20.710938 C 19.367188 20.703125 19.351562 20.695312 19.335938 20.6875 C 19.222656 20.632812 18.964844 20.390625 18.855469 20.234375 C 18.789062 20.140625 18.6875 19.949219 18.664062 19.878906 C 18.65625 19.851562 18.640625 19.8125 18.632812 19.789062 C 18.625 19.769531 18.609375 19.71875 18.597656 19.683594 C 18.589844 19.648438 18.578125 19.609375 18.574219 19.597656 C 18.566406 19.585938 18.554688 19.523438 18.546875 19.457031 C 18.539062 19.394531 18.523438 19.328125 18.515625 19.316406 C 18.503906 19.292969 18.5 18.824219 18.496094 17.414062 L 18.492188 15.539062 L 20.039062 15.539062 Z M 20.039062 17.179688 "/><path style=" stroke:none;fill-rule:nonzero;fill:#ff6200;fill-opacity:1;" d="M 15.472656 18.464844 C 15.40625 18.46875 15.339844 18.480469 15.328125 18.488281 C 15.3125 18.496094 15.265625 18.507812 15.222656 18.515625 C 15.179688 18.523438 15.121094 18.539062 15.09375 18.550781 C 14.898438 18.636719 14.800781 18.695312 14.734375 18.761719 C 14.671875 18.828125 14.605469 18.953125 14.597656 19.027344 C 14.59375 19.054688 14.585938 19.089844 14.578125 19.105469 C 14.5625 19.132812 14.566406 19.230469 14.589844 19.351562 C 14.617188 19.484375 14.722656 19.648438 14.816406 19.695312 C 14.984375 19.78125 15.015625 19.796875 15.109375 19.808594 C 15.273438 19.835938 15.59375 19.820312 15.660156 19.785156 C 15.671875 19.777344 15.722656 19.753906 15.769531 19.734375 C 15.816406 19.710938 15.878906 19.675781 15.910156 19.652344 C 15.9375 19.628906 15.96875 19.605469 15.984375 19.59375 C 16.058594 19.539062 16.195312 19.308594 16.214844 19.210938 C 16.21875 19.1875 16.230469 19.160156 16.238281 19.152344 C 16.246094 19.136719 16.253906 19.015625 16.257812 18.796875 L 16.261719 18.464844 L 16.191406 18.457031 C 16.09375 18.445312 15.617188 18.449219 15.472656 18.464844 Z M 15.472656 18.464844 "/></g></svg>