<svg xmlns="http://www.w3.org/2000/svg" xmlns:xlink="http://www.w3.org/1999/xlink" width="40" zoomAndPan="magnify" viewBox="0 0 30 30.000001" height="40" preserveAspectRatio="xMidYMid meet" version="1.2"><defs><clipPath id="d45ddb0039"><path d="M 0.484375 0 L 29.515625 0 L 29.515625 29.03125 L 0.484375 29.03125 Z M 0.484375 0 "/></clipPath><clipPath id="900de96c50"><path d="M 1.667969 1.335938 L 28.523438 1.335938 L 28.523438 27.464844 L 1.667969 27.464844 Z M 1.667969 1.335938 "/></clipPath><clipPath id="3a7b5a8f00"><path d="M 5 4 L 28.523438 4 L 28.523438 22 L 5 22 Z M 5 4 "/></clipPath></defs><g id="f5ed1be727"><g clip-rule="nonzero" clip-path="url(#d45ddb0039)"><path style=" stroke:none;fill-rule:nonzero;fill:#ffffff;fill-opacity:1;" d="M 0.484375 0 L 29.515625 0 L 29.515625 29.03125 L 0.484375 29.03125 Z M 0.484375 0 "/><path style=" stroke:none;fill-rule:nonzero;fill:#fe0000;fill-opacity:1;" d="M 0.484375 0 L 29.515625 0 L 29.515625 29.03125 L 0.484375 29.03125 Z M 0.484375 0 "/></g><g clip-rule="nonzero" clip-path="url(#900de96c50)"><rect x="0" width="30" y="0" height="30.000001" style="fill:#fe0000;fill-opacity:1;stroke:none;"/></g><g clip-rule="nonzero" clip-path="url(#3a7b5a8f00)"><path style=" stroke:none;fill-rule:nonzero;fill:#ffffff;fill-opacity:1;" d="M 14.9375 4.472656 C 14.878906 4.992188 14.902344 5.550781 15.054688 6 C 15.257812 6.609375 15.535156 7.042969 16.566406 8.378906 C 17.65625 9.789062 18.003906 10.300781 18.261719 11.03125 C 18.472656 11.628906 18.480469 11.972656 18.386719 12.515625 C 19.339844 12.695312 20.902344 13.199219 21.949219 13.824219 C 22.921875 14.417969 23.628906 15.191406 23.886719 15.9375 C 24.039062 16.378906 24.035156 17.066406 23.871094 17.496094 C 23.714844 17.90625 23.5 18.25 23.1875 18.59375 C 21.933594 19.960938 19.449219 20.941406 16.460938 21.253906 C 15.796875 21.324219 14.175781 21.375 13.621094 21.34375 C 9.625 21.109375 6.414062 19.738281 5.5 17.871094 C 5.121094 17.09375 5.128906 16.425781 5.53125 15.65625 C 5.859375 15.023438 6.765625 14.242188 7.832031 13.667969 C 8.855469 13.179688 9.816406 12.8125 10.847656 12.523438 C 10.898438 13.191406 12.210938 14.792969 12.644531 15.359375 C 13.589844 16.59375 13.964844 17.179688 14.234375 17.652344 C 14.394531 17.9375 14.484375 18.117188 14.4375 18.65625 C 14.4375 18.65625 14.804688 18.328125 14.941406 18.046875 C 15.117188 17.6875 15.183594 17.320312 15.148438 16.851562 C 15.105469 16.285156 15.007812 15.9375 14.738281 15.382812 C 14.472656 14.84375 14.09375 14.296875 13.371094 13.417969 C 12.355469 12.175781 11.976562 11.492188 11.824219 10.605469 C 11.648438 9.617188 11.929688 8.570312 12.496094 8.0625 C 12.621094 7.953125 12.820312 7.84375 12.820312 7.84375 C 12.820312 7.84375 12.804688 8.097656 12.804688 8.386719 C 12.804688 8.996094 12.875 9.3125 13.109375 9.777344 C 13.402344 10.355469 13.804688 10.894531 15.042969 12.363281 C 16.140625 13.660156 16.480469 14.320312 16.480469 15.144531 C 16.480469 15.335938 16.480469 15.542969 16.480469 15.542969 C 16.480469 15.542969 16.769531 15.320312 16.90625 15.121094 C 17.332031 14.480469 17.398438 13.484375 17.074219 12.601562 C 16.851562 11.996094 16.492188 11.449219 15.429688 10.117188 C 14.347656 8.765625 13.894531 7.679688 13.894531 6.777344 C 13.894531 5.875 14.089844 5.011719 14.9375 4.472656 Z M 35.261719 17.777344 C 35.289062 17.476562 35.265625 17.179688 35.230469 17.019531 C 35.101562 16.398438 34.640625 15.773438 33.96875 15.3125 C 33.769531 15.171875 33.160156 14.859375 32.527344 14.566406 C 31.265625 13.988281 30.914062 13.777344 30.597656 13.425781 C 30.289062 13.082031 30.175781 12.777344 30.175781 12.289062 C 30.171875 11.960938 30.191406 11.863281 30.296875 11.632812 C 30.640625 10.890625 31.496094 10.492188 32.492188 10.617188 C 33.082031 10.691406 33.390625 10.824219 33.734375 11.144531 C 34.097656 11.484375 34.28125 11.875 34.382812 12.515625 L 34.410156 12.875 L 34.957031 12.875 L 34.910156 10.390625 L 34.730469 10.347656 C 34.59375 10.3125 33.6875 10.140625 33.207031 10.082031 C 32.492188 9.992188 32.203125 9.980469 31.785156 10.027344 C 30.96875 10.121094 30.292969 10.429688 29.785156 10.941406 C 29.265625 11.460938 29.015625 12.015625 28.976562 12.71875 C 28.9375 13.441406 29.167969 14.039062 29.6875 14.550781 C 30.121094 14.980469 30.304688 15.089844 31.648438 15.726562 C 33.371094 16.542969 33.757812 16.78125 34.019531 17.394531 C 34.246094 17.925781 34.261719 18.519531 34.027344 18.996094 C 33.429688 20.214844 31.542969 20.535156 30.371094 19.617188 C 29.933594 19.273438 29.613281 18.753906 29.507812 18.21875 L 29.453125 17.9375 L 28.988281 17.9375 L 29.070312 20.316406 C 29.070312 20.316406 29.964844 20.554688 30.378906 20.597656 C 30.695312 20.632812 31.007812 20.691406 31.324219 20.691406 C 31.960938 20.691406 32.253906 20.773438 32.914062 20.554688 C 33.59375 20.332031 35.09375 19.878906 35.261719 17.777344 Z M 39.449219 13.871094 C 40.175781 13.871094 40.8125 14.1875 41.113281 14.652344 C 41.398438 15.09375 41.402344 15.472656 41.402344 15.722656 L 41.402344 19.15625 C 41.402344 19.5625 41.699219 19.691406 42.125 19.550781 L 42.445312 19.425781 L 42.445312 19.878906 L 40.855469 20.570312 C 40.671875 20.652344 40.546875 20.464844 40.457031 20.121094 L 40.359375 19.789062 L 40.09375 19.992188 C 39.71875 20.285156 39.222656 20.554688 38.496094 20.554688 C 37.8125 20.558594 37.363281 20.464844 36.917969 19.757812 C 36.707031 19.347656 36.683594 18.800781 36.859375 18.402344 C 37.066406 17.941406 37.46875 17.707031 39.167969 17.054688 L 40.3125 16.625 L 40.3125 16.308594 C 40.3125 15.136719 39.996094 14.773438 39.585938 14.546875 C 39.257812 14.367188 38.820312 14.414062 38.40625 14.683594 C 38.0625 14.90625 37.957031 15.285156 38.136719 15.671875 C 38.269531 15.96875 38.222656 15.875 38.222656 15.886719 L 37.292969 16.375 C 37.292969 16.375 37.132812 16.101562 37.085938 15.949219 C 36.871094 15.25 37.144531 14.859375 38.199219 14.28125 C 38.75 13.980469 39.074219 13.871094 39.449219 13.871094 Z M 40.3125 17.121094 C 40.3125 17.121094 38.820312 17.75 38.53125 17.894531 C 38.304688 18.011719 38.039062 18.21875 37.953125 18.386719 C 37.839844 18.605469 37.859375 19.007812 37.996094 19.246094 C 38.128906 19.46875 38.289062 19.652344 38.496094 19.742188 C 38.570312 19.777344 38.820312 19.832031 38.996094 19.832031 C 39.351562 19.835938 39.722656 19.6875 40.105469 19.371094 L 40.3125 19.199219 Z M 44.988281 13.871094 L 44.988281 15.085938 L 45.300781 14.792969 C 45.976562 14.15625 46.621094 13.871094 47.121094 13.871094 C 48.257812 13.871094 49.300781 14.863281 49.253906 16.265625 L 49.253906 19.515625 C 49.253906 19.878906 49.347656 20.105469 49.710938 20.105469 L 50.300781 20.105469 L 50.300781 20.554688 L 47.167969 20.554688 L 47.167969 20.105469 L 47.621094 20.105469 C 47.984375 20.105469 48.121094 19.878906 48.121094 19.515625 L 48.121094 16.265625 C 48.121094 15.585938 47.871094 15.246094 47.667969 15.042969 C 47.394531 14.773438 47.0625 14.695312 46.578125 14.726562 C 46.199219 14.753906 45.8125 14.949219 45.367188 15.308594 L 45.078125 15.542969 L 45.078125 19.742188 C 45.078125 19.96875 45.171875 20.105469 45.398438 20.105469 L 45.988281 20.105469 L 45.988281 20.554688 L 42.902344 20.554688 L 42.902344 20.105469 L 43.308594 20.105469 C 43.671875 20.105469 43.945312 19.878906 43.945312 19.515625 L 43.945312 16.039062 C 43.945312 15.136719 43.671875 14.863281 42.902344 15.269531 L 42.898438 14.789062 C 43.398438 14.636719 44.308594 14.1875 44.808594 13.871094 Z M 53.75 20.554688 C 54.15625 20.554688 54.253906 20.511719 54.632812 20.191406 L 55.382812 19.5625 L 55.203125 19.246094 L 54.867188 19.421875 C 54.371094 19.6875 53.976562 19.742188 53.476562 19.515625 C 53.050781 19.324219 52.796875 18.660156 52.796875 18.296875 L 52.796875 14.640625 L 54.882812 14.636719 L 55.113281 14.003906 L 52.796875 14.003906 L 52.796875 11.925781 L 52.570312 11.925781 C 52.023438 12.921875 51.207031 13.871094 50.207031 14.457031 L 50.207031 14.636719 L 51.660156 14.636719 L 51.660156 18.296875 C 51.660156 19.15625 51.980469 19.789062 52.480469 20.148438 C 52.953125 20.492188 53.25 20.554688 53.75 20.554688 Z M 58.5625 13.871094 C 59.289062 13.871094 59.921875 14.1875 60.226562 14.652344 C 60.511719 15.09375 60.511719 15.472656 60.511719 15.722656 L 60.511719 19.15625 C 60.511719 19.5625 60.808594 19.691406 61.234375 19.550781 L 61.558594 19.425781 L 61.558594 19.878906 L 59.96875 20.570312 C 59.785156 20.652344 59.65625 20.464844 59.570312 20.121094 L 59.46875 19.789062 L 59.203125 19.992188 C 58.832031 20.285156 58.335938 20.554688 57.609375 20.554688 C 56.921875 20.558594 56.472656 20.464844 56.027344 19.757812 C 55.820312 19.347656 55.796875 18.800781 55.972656 18.402344 C 56.175781 17.941406 56.582031 17.707031 58.277344 17.054688 L 59.421875 16.625 L 59.421875 16.308594 C 59.421875 15.136719 59.105469 14.773438 58.699219 14.546875 C 58.367188 14.367188 57.933594 14.414062 57.515625 14.683594 C 57.171875 14.90625 57.070312 15.285156 57.246094 15.671875 C 57.382812 15.96875 57.335938 15.875 57.335938 15.886719 L 56.402344 16.375 C 56.402344 16.375 56.242188 16.101562 56.195312 15.949219 C 55.980469 15.25 56.257812 14.859375 57.308594 14.28125 C 57.859375 13.980469 58.183594 13.871094 58.5625 13.871094 Z M 59.421875 17.121094 C 59.421875 17.121094 57.929688 17.75 57.644531 17.894531 C 57.414062 18.011719 57.152344 18.21875 57.0625 18.386719 C 56.949219 18.605469 56.96875 19.007812 57.109375 19.246094 C 57.242188 19.46875 57.398438 19.652344 57.609375 19.742188 C 57.683594 19.777344 57.933594 19.832031 58.105469 19.832031 C 58.460938 19.835938 58.835938 19.6875 59.214844 19.371094 L 59.421875 19.199219 Z M 64.097656 13.871094 L 64.097656 15.085938 L 64.410156 14.792969 C 65.085938 14.15625 65.734375 13.871094 66.234375 13.871094 C 67.367188 13.871094 68.410156 14.863281 68.367188 16.265625 L 68.367188 19.515625 C 68.367188 19.878906 68.457031 20.105469 68.820312 20.105469 L 69.410156 20.105469 L 69.410156 20.554688 L 66.277344 20.554688 L 66.277344 20.105469 L 66.730469 20.105469 C 67.09375 20.105469 67.230469 19.878906 67.230469 19.515625 L 67.230469 16.265625 C 67.230469 15.585938 66.980469 15.246094 66.777344 15.042969 C 66.503906 14.773438 66.175781 14.695312 65.6875 14.726562 C 65.308594 14.753906 64.921875 14.949219 64.480469 15.308594 L 64.191406 15.542969 L 64.191406 19.742188 C 64.191406 19.96875 64.28125 20.105469 64.507812 20.105469 L 65.097656 20.105469 L 65.097656 20.554688 L 62.011719 20.554688 L 62.011719 20.105469 L 62.417969 20.105469 C 62.78125 20.105469 63.054688 19.878906 63.054688 19.515625 L 63.054688 16.039062 C 63.054688 15.136719 62.78125 14.863281 62.011719 15.269531 L 62.011719 14.789062 C 62.511719 14.636719 63.417969 14.1875 63.917969 13.871094 Z M 77.582031 19.789062 L 77.582031 19.335938 C 77.082031 19.5625 76.855469 19.5625 76.683594 19.449219 C 76.441406 19.28125 76.445312 18.976562 76.445312 18.976562 L 76.445312 9.035156 L 76.308594 9.035156 C 75.652344 9.449219 74.859375 9.847656 74.175781 10.074219 L 74.175781 10.570312 C 74.539062 10.4375 74.8125 10.363281 75.039062 10.480469 C 75.1875 10.5625 75.265625 10.664062 75.265625 10.886719 L 75.265625 14.265625 L 75 14.160156 C 74.464844 13.945312 74.1875 13.894531 73.542969 13.894531 C 73 13.894531 72.886719 13.910156 72.5625 14.015625 C 71.070312 14.511719 70.117188 15.964844 70.195312 17.617188 C 70.238281 18.5625 70.515625 19.304688 71.136719 19.832031 C 71.769531 20.375 72.316406 20.554688 72.949219 20.554688 C 73.8125 20.554688 74.3125 20.386719 74.9375 19.960938 C 75.128906 19.832031 75.3125 19.699219 75.3125 19.699219 C 75.355469 20.148438 75.46875 20.421875 75.628906 20.648438 Z M 72.875 19.707031 C 72.027344 19.40625 71.410156 18.363281 71.332031 17.101562 C 71.230469 15.519531 72.113281 14.410156 73.46875 14.410156 C 74.039062 14.410156 74.476562 14.566406 75.003906 14.957031 L 75.265625 15.152344 L 75.242188 19.210938 L 74.953125 19.386719 C 74.457031 19.683594 74.21875 19.753906 73.632812 19.773438 C 73.207031 19.789062 73.066406 19.773438 72.875 19.707031 Z M 82.460938 20.488281 C 82.839844 20.390625 83.347656 20.195312 83.9375 19.832031 L 83.9375 19.382812 C 83.4375 19.742188 82.644531 19.96875 81.9375 19.96875 C 81.171875 19.96875 80.578125 19.742188 80.167969 19.292969 C 79.566406 18.625 79.398438 18.070312 79.292969 16.714844 L 84.074219 16.714844 C 84.074219 16.714844 84.074219 16.039062 83.800781 15.40625 C 83.613281 14.972656 83.4375 14.636719 82.9375 14.320312 C 82.46875 14.027344 81.839844 13.898438 81.304688 13.894531 C 80.746094 13.894531 80.660156 13.902344 80.359375 14.011719 C 78.945312 14.527344 77.984375 15.984375 78.101562 17.433594 C 78.214844 18.832031 79.039062 19.957031 80.277344 20.40625 C 80.828125 20.605469 81.867188 20.644531 82.460938 20.488281 Z M 79.851562 14.910156 C 80.167969 14.59375 80.53125 14.410156 81.121094 14.410156 C 81.667969 14.410156 82.03125 14.546875 82.394531 14.910156 C 82.664062 15.179688 82.800781 15.40625 82.859375 16.175781 L 79.292969 16.175781 C 79.351562 15.632812 79.535156 15.226562 79.851562 14.910156 Z M 86.75 13.871094 L 86.75 15.359375 C 86.988281 14.953125 87.203125 14.683594 87.613281 14.277344 C 87.929688 13.960938 88.339844 13.871094 88.65625 13.871094 C 88.882812 13.871094 89.472656 14.050781 89.472656 14.050781 L 89.472656 15.40625 L 89.246094 15.40625 C 89.15625 15.042969 88.839844 14.863281 88.386719 14.863281 C 87.792969 14.863281 87.410156 15.101562 87.171875 15.457031 C 86.933594 15.8125 86.839844 15.992188 86.839844 16.761719 L 86.839844 19.742188 C 86.839844 19.96875 86.933594 20.105469 87.160156 20.105469 L 87.75 20.105469 L 87.75 20.554688 L 84.664062 20.554688 L 84.664062 20.105469 L 85.070312 20.105469 C 85.433594 20.105469 85.707031 19.878906 85.707031 19.515625 L 85.707031 16.039062 C 85.707031 15.042969 85.34375 15.089844 84.707031 15.359375 L 84.707031 14.910156 C 85.296875 14.683594 86.023438 14.367188 86.570312 13.871094 Z M 86.75 13.871094 "/></g></g></svg>