<svg version="1.1" id="Layer_1" xmlns="http://www.w3.org/2000/svg" xmlns:xlink="http://www.w3.org/1999/xlink" x="0px" y="0px"
	 width="100%" viewBox="0 0 750 750" enable-background="new 0 0 750 750" xml:space="preserve">
<path fill="#001864" opacity="1.000000" stroke="none" 
	d="
M495.000000,751.000000 
	C330.000000,751.000000 165.500000,751.000000 1.000000,751.000000 
	C1.000000,501.000000 1.000000,251.000000 1.000000,1.000000 
	C251.000000,1.000000 501.000000,1.000000 751.000000,1.000000 
	C751.000000,251.000000 751.000000,501.000000 751.000000,751.000000 
	C665.833313,751.000000 580.666687,751.000000 495.000000,751.000000 
M423.457458,589.036499 
	C382.699768,603.293335 341.120209,606.139282 299.041046,596.616760 
	C179.615799,569.590820 104.289406,455.333038 125.897499,334.543854 
	C147.234650,215.269287 262.749817,133.222046 382.862915,152.987457 
	C457.901520,165.335541 513.157959,206.195007 549.133301,273.139404 
	C553.181946,280.673248 553.286255,280.867340 562.408142,279.030212 
	C561.742249,277.476349 561.151611,275.960938 560.456299,274.495148 
	C514.365906,177.327255 406.300293,123.529121 300.752258,145.198593 
	C172.646088,171.499344 90.240799,297.796844 117.831810,425.549469 
	C144.645645,549.703613 265.860199,630.987000 390.125977,607.707275 
	C450.205597,596.452026 498.968536,566.270081 536.050903,517.545044 
	C538.102417,514.849426 540.240051,513.998657 543.524963,513.964417 
	C559.174377,513.801514 574.880920,514.098755 590.455322,512.844116 
	C619.139648,510.533264 637.911316,492.383575 638.791565,465.180969 
	C639.723206,436.389740 639.666321,407.523987 638.780640,378.729553 
	C638.024048,354.131775 623.795166,337.791443 599.873352,331.845337 
	C582.136353,327.436584 564.210510,327.570435 546.426819,331.666870 
	C524.681335,336.675873 511.804443,350.399567 507.850372,372.354614 
	C504.927185,388.585571 504.908813,404.899414 508.206512,421.027863 
	C511.923370,439.206390 522.291138,451.976288 540.516785,457.478882 
	C552.813171,461.191315 565.485352,462.309174 578.070435,460.260468 
	C587.077515,458.794189 595.794922,455.548218 604.820068,453.046844 
	C604.651794,455.591339 604.521301,459.220612 604.154114,462.825745 
	C602.712769,476.976013 595.971497,484.370728 581.933472,486.004181 
	C573.698792,486.962372 565.318237,487.017639 557.011169,486.903839 
	C549.111572,486.795654 543.450562,489.644409 539.139282,496.420807 
	C511.294006,540.188293 472.877350,570.911499 423.457458,589.036499 
M275.050201,460.536133 
	C279.349854,462.282471 283.513397,464.581757 287.972748,465.679565 
	C307.546539,470.498291 327.263184,470.507477 346.774750,465.530243 
	C366.941193,460.385925 379.192566,447.200928 382.947998,426.739594 
	C386.370575,408.091766 386.443237,389.253571 382.872681,370.641205 
	C379.247284,351.743042 368.548431,338.354645 349.708893,332.426788 
	C337.110657,328.462708 324.094604,327.609985 311.200989,329.766907 
	C302.241791,331.265686 293.588165,334.591400 284.705627,337.127289 
	C284.705627,317.485321 284.705627,296.875183 284.705627,275.937195 
	C272.881317,277.805389 261.455170,279.610718 249.950699,281.428375 
	C249.851334,282.975586 249.713928,284.119629 249.713638,285.263733 
	C249.703751,325.240753 249.655258,365.217896 249.765091,405.194611 
	C249.781052,410.999878 250.190765,416.859772 251.063049,422.596344 
	C253.464172,438.387146 259.933838,451.797546 275.050201,460.536133 
M445.002136,371.525757 
	C445.002136,368.094910 445.002136,364.664062 445.002136,360.997314 
	C459.941193,360.997314 474.235413,360.997314 488.823029,360.997314 
	C490.716705,351.660095 492.570557,342.519409 494.549622,332.761261 
	C477.551788,332.761261 461.321167,332.761261 444.741760,332.761261 
	C444.741760,319.851562 444.741760,307.431976 444.741760,294.740753 
	C433.018646,296.525757 421.692749,298.250275 410.065063,300.020721 
	C410.065063,302.069458 410.065063,303.884827 410.065063,305.700195 
	C410.065063,341.191315 410.020691,376.682587 410.109344,412.173462 
	C410.123901,417.989868 410.381622,423.848633 411.119659,429.611908 
	C413.080292,444.922699 420.000061,456.797791 435.530151,461.751587 
	C452.167236,467.058441 469.351440,465.789185 486.518524,465.823059 
	C487.554871,460.822754 488.504974,456.281769 489.435455,451.736786 
	C490.348907,447.275055 491.242401,442.809204 492.219879,437.973114 
	C483.938812,437.973114 476.288971,438.035919 468.640472,437.960419 
	C451.135406,437.787659 445.207062,431.875153 445.008423,414.509460 
	C444.993195,413.176636 445.002380,411.843506 445.002350,410.510529 
	C445.001984,397.847015 445.002136,385.183533 445.002136,371.525757 
z"/>
<path fill="#FBFCFD" opacity="1.000000" stroke="none" 
	d="
M423.838409,588.944458 
	C472.877350,570.911499 511.294006,540.188293 539.139282,496.420807 
	C543.450562,489.644409 549.111572,486.795654 557.011169,486.903839 
	C565.318237,487.017639 573.698792,486.962372 581.933472,486.004181 
	C595.971497,484.370728 602.712769,476.976013 604.154114,462.825745 
	C604.521301,459.220612 604.651794,455.591339 604.820068,453.046844 
	C595.794922,455.548218 587.077515,458.794189 578.070435,460.260468 
	C565.485352,462.309174 552.813171,461.191315 540.516785,457.478882 
	C522.291138,451.976288 511.923370,439.206390 508.206512,421.027863 
	C504.908813,404.899414 504.927185,388.585571 507.850372,372.354614 
	C511.804443,350.399567 524.681335,336.675873 546.426819,331.666870 
	C564.210510,327.570435 582.136353,327.436584 599.873352,331.845337 
	C623.795166,337.791443 638.024048,354.131775 638.780640,378.729553 
	C639.666321,407.523987 639.723206,436.389740 638.791565,465.180969 
	C637.911316,492.383575 619.139648,510.533264 590.455322,512.844116 
	C574.880920,514.098755 559.174377,513.801514 543.524963,513.964417 
	C540.240051,513.998657 538.102417,514.849426 536.050903,517.545044 
	C498.968536,566.270081 450.205597,596.452026 390.125977,607.707275 
	C265.860199,630.987000 144.645645,549.703613 117.831810,425.549469 
	C90.240799,297.796844 172.646088,171.499344 300.752258,145.198593 
	C406.300293,123.529121 514.365906,177.327255 560.456299,274.495148 
	C561.151611,275.960938 561.742249,277.476349 562.408142,279.030212 
	C553.286255,280.867340 553.181946,280.673248 549.133301,273.139404 
	C513.157959,206.195007 457.901520,165.335541 382.862915,152.987457 
	C262.749817,133.222046 147.234650,215.269287 125.897499,334.543854 
	C104.289406,455.333038 179.615799,569.590820 299.041046,596.616760 
	C341.120209,606.139282 382.699768,603.293335 423.838409,588.944458 
M596.957397,362.490417 
	C594.022583,360.997925 591.164185,358.427094 588.138733,358.212646 
	C578.593689,357.535919 568.925598,357.018066 559.419617,357.811218 
	C549.934448,358.602600 543.350098,364.883575 542.685669,374.265167 
	C541.705017,388.112305 541.741943,402.125946 542.668152,415.980286 
	C543.279724,425.129028 549.615173,431.464813 558.835938,432.429626 
	C568.162415,433.405426 577.794189,433.587677 587.067017,432.383331 
	C597.323669,431.051147 603.183716,424.555695 603.835144,414.157318 
	C604.612122,401.754150 604.489929,389.217224 603.577515,376.825104 
	C603.229065,372.091858 599.615417,367.599060 596.957397,362.490417 
z"/>
<path fill="#FDFEFE" opacity="1.000000" stroke="none" 
	d="
M274.742859,460.330505 
	C259.933838,451.797546 253.464172,438.387146 251.063049,422.596344 
	C250.190765,416.859772 249.781052,410.999878 249.765091,405.194611 
	C249.655258,365.217896 249.703751,325.240753 249.713638,285.263733 
	C249.713928,284.119629 249.851334,282.975586 249.950699,281.428375 
	C261.455170,279.610718 272.881317,277.805389 284.705627,275.937195 
	C284.705627,296.875183 284.705627,317.485321 284.705627,337.127289 
	C293.588165,334.591400 302.241791,331.265686 311.200989,329.766907 
	C324.094604,327.609985 337.110657,328.462708 349.708893,332.426788 
	C368.548431,338.354645 379.247284,351.743042 382.872681,370.641205 
	C386.443237,389.253571 386.370575,408.091766 382.947998,426.739594 
	C379.192566,447.200928 366.941193,460.385925 346.774750,465.530243 
	C327.263184,470.507477 307.546539,470.498291 287.972748,465.679565 
	C283.513397,464.581757 279.349854,462.282471 274.742859,460.330505 
M349.536987,416.815216 
	C349.357574,404.036804 349.938293,391.189087 348.781738,378.499725 
	C347.659729,366.189514 340.713776,359.017578 328.960114,357.471893 
	C320.996613,356.424622 312.685303,356.745758 304.670410,357.672729 
	C293.364105,358.980316 286.773315,366.289703 285.308716,377.353088 
	C283.360382,392.070374 283.034851,406.914703 285.996582,421.566620 
	C288.308960,433.006042 295.202728,439.457092 306.593628,440.832153 
	C312.489410,441.543854 318.567047,441.688141 324.477966,441.153534 
	C340.201355,439.731476 346.999451,433.063843 349.536987,416.815216 
z"/>
<path fill="#FEFEFE" opacity="1.000000" stroke="none" 
	d="
M445.002136,372.022888 
	C445.002136,385.183533 445.001984,397.847015 445.002350,410.510529 
	C445.002380,411.843506 444.993195,413.176636 445.008423,414.509460 
	C445.207062,431.875153 451.135406,437.787659 468.640472,437.960419 
	C476.288971,438.035919 483.938812,437.973114 492.219879,437.973114 
	C491.242401,442.809204 490.348907,447.275055 489.435455,451.736786 
	C488.504974,456.281769 487.554871,460.822754 486.518524,465.823059 
	C469.351440,465.789185 452.167236,467.058441 435.530151,461.751587 
	C420.000061,456.797791 413.080292,444.922699 411.119659,429.611908 
	C410.381622,423.848633 410.123901,417.989868 410.109344,412.173462 
	C410.020691,376.682587 410.065063,341.191315 410.065063,305.700195 
	C410.065063,303.884827 410.065063,302.069458 410.065063,300.020721 
	C421.692749,298.250275 433.018646,296.525757 444.741760,294.740753 
	C444.741760,307.431976 444.741760,319.851562 444.741760,332.761261 
	C461.321167,332.761261 477.551788,332.761261 494.549622,332.761261 
	C492.570557,342.519409 490.716705,351.660095 488.823029,360.997314 
	C474.235413,360.997314 459.941193,360.997314 445.002136,360.997314 
	C445.002136,364.664062 445.002136,368.094910 445.002136,372.022888 
z"/>
<path fill="#011A65" opacity="1.000000" stroke="none" 
	d="
M597.223633,362.743530 
	C599.615417,367.599060 603.229065,372.091858 603.577515,376.825104 
	C604.489929,389.217224 604.612122,401.754150 603.835144,414.157318 
	C603.183716,424.555695 597.323669,431.051147 587.067017,432.383331 
	C577.794189,433.587677 568.162415,433.405426 558.835938,432.429626 
	C549.615173,431.464813 543.279724,425.129028 542.668152,415.980286 
	C541.741943,402.125946 541.705017,388.112305 542.685669,374.265167 
	C543.350098,364.883575 549.934448,358.602600 559.419617,357.811218 
	C568.925598,357.018066 578.593689,357.535919 588.138733,358.212646 
	C591.164185,358.427094 594.022583,360.997925 597.223633,362.743530 
z"/>
<path fill="#011A65" opacity="1.000000" stroke="none" 
	d="
M349.441254,417.246460 
	C346.999451,433.063843 340.201355,439.731476 324.477966,441.153534 
	C318.567047,441.688141 312.489410,441.543854 306.593628,440.832153 
	C295.202728,439.457092 288.308960,433.006042 285.996582,421.566620 
	C283.034851,406.914703 283.360382,392.070374 285.308716,377.353088 
	C286.773315,366.289703 293.364105,358.980316 304.670410,357.672729 
	C312.685303,356.745758 320.996613,356.424622 328.960114,357.471893 
	C340.713776,359.017578 347.659729,366.189514 348.781738,378.499725 
	C349.938293,391.189087 349.357574,404.036804 349.441254,417.246460 
z"/>
</svg>