<svg xmlns="http://www.w3.org/2000/svg" xmlns:xlink="http://www.w3.org/1999/xlink" width="500" zoomAndPan="magnify" viewBox="0 0 375 374.999991" height="500" preserveAspectRatio="xMidYMid meet" version="1.2"><g id="f23d7fd9d8"><rect x="0" width="375" y="0" height="374.999991" style="fill:#ffffff;fill-opacity:1;stroke:none;"/><rect x="0" width="375" y="0" height="374.999991" style="fill:#ffffff;fill-opacity:1;stroke:none;"/><path style=" stroke:none;fill-rule:nonzero;fill:#ff6200;fill-opacity:1;" d="M 169.773438 51.796875 C 161.949219 51.984375 156.207031 52.257812 145.6875 52.90625 C 140.820312 53.199219 135.507812 53.625 131.765625 54 C 130.828125 54.101562 128.863281 54.289062 127.410156 54.429688 C 121.3125 55.027344 112.261719 56.167969 108.453125 56.816406 C 107.648438 56.957031 106.46875 57.144531 105.804688 57.246094 C 105.15625 57.332031 103.992188 57.535156 103.242188 57.671875 C 102.492188 57.808594 101.226562 58.050781 100.425781 58.183594 C 97.605469 58.664062 92.808594 59.636719 90.089844 60.285156 C 89.339844 60.476562 87.988281 60.796875 87.101562 61.003906 C 86.210938 61.207031 85.410156 61.398438 85.308594 61.414062 C 80.300781 62.609375 75.332031 65.019531 71.507812 68.144531 C 67.78125 71.167969 64.453125 76.050781 62.777344 80.902344 C 62.507812 81.652344 62.230469 82.421875 62.148438 82.609375 C 61.859375 83.261719 60.59375 88.722656 59.6875 93.203125 C 59.550781 93.953125 59.3125 95.0625 59.175781 95.679688 C 59.039062 96.292969 58.851562 97.367188 58.730469 98.066406 C 58.628906 98.769531 58.492188 99.625 58.40625 99.945312 C 58.148438 100.921875 57.109375 107.582031 56.441406 112.414062 C 55.792969 117.097656 55.363281 120.496094 54.992188 123.945312 C 54.800781 125.636719 54.613281 127.292969 54.582031 127.617188 C 54.53125 127.941406 54.375 129.597656 54.222656 131.289062 C 54.085938 132.980469 53.882812 135.046875 53.777344 135.902344 C 53.417969 139.042969 52.527344 152.726562 52.085938 162.378906 C 51.746094 169.53125 51.523438 184.855469 51.644531 193.207031 C 51.761719 203.625 52.019531 212.9375 52.257812 216.179688 C 52.34375 217.496094 52.515625 220.265625 52.617188 222.332031 C 52.71875 224.398438 52.855469 227.042969 52.941406 228.222656 C 53.332031 234.132812 53.640625 238.007812 53.792969 239.238281 C 53.882812 239.992188 54.085938 241.988281 54.222656 243.660156 C 54.359375 245.335938 54.5625 247.335938 54.648438 248.101562 C 54.75 248.871094 54.941406 250.527344 55.074219 251.792969 C 55.503906 255.839844 55.828125 258.488281 56.101562 260.25 C 56.238281 261.1875 56.476562 262.792969 56.613281 263.835938 C 57.109375 267.59375 57.6875 271.246094 58.320312 274.597656 C 58.457031 275.347656 58.679688 276.613281 58.832031 277.414062 C 59.125 279.121094 59.789062 282.523438 60.269531 284.671875 C 61.90625 292.207031 62.625 294.460938 64.554688 298.167969 C 65.085938 299.191406 65.765625 300.386719 66.074219 300.8125 C 66.363281 301.242188 66.792969 301.855469 67.015625 302.179688 C 67.988281 303.632812 70.773438 306.46875 72.3125 307.5625 C 72.566406 307.746094 73.0625 308.105469 73.386719 308.363281 C 73.730469 308.636719 74.050781 308.84375 74.136719 308.84375 C 74.207031 308.84375 74.378906 308.960938 74.511719 309.097656 C 75.179688 309.75 79.878906 311.984375 81.890625 312.582031 C 82.265625 312.703125 82.730469 312.855469 82.917969 312.941406 C 83.363281 313.148438 85.871094 313.777344 88.894531 314.460938 C 90.210938 314.769531 91.558594 315.09375 91.882812 315.179688 C 92.667969 315.382812 97.621094 316.375 101.363281 317.058594 C 103.515625 317.449219 107.703125 318.117188 110.332031 318.492188 C 111.320312 318.628906 112.585938 318.816406 113.148438 318.917969 C 115.214844 319.277344 123.757812 320.269531 129.121094 320.78125 C 131.050781 320.96875 133.421875 321.191406 134.414062 321.292969 C 136.019531 321.464844 137.660156 321.601562 145.515625 322.164062 C 146.695312 322.25 149.378906 322.402344 151.496094 322.507812 C 153.613281 322.609375 156.566406 322.761719 158.070312 322.847656 C 170.234375 323.546875 205.007812 323.546875 217 322.847656 C 218.503906 322.746094 221.457031 322.609375 223.574219 322.507812 C 227.210938 322.335938 228.546875 322.25 234.25 321.824219 C 241.558594 321.261719 252.304688 320.214844 255.941406 319.707031 C 256.984375 319.550781 258.777344 319.3125 259.957031 319.15625 C 264.3125 318.59375 270.289062 317.6875 273.707031 317.058594 C 277.449219 316.375 282.398438 315.382812 283.1875 315.179688 C 283.511719 315.09375 284.859375 314.769531 286.175781 314.460938 C 289.128906 313.796875 291.691406 313.144531 292.152344 312.941406 C 292.722656 312.738281 293.289062 312.539062 293.859375 312.34375 C 295.261719 311.882812 299.910156 309.679688 300.300781 309.304688 C 300.421875 309.183594 300.761719 308.929688 301.050781 308.753906 C 302.386719 307.921875 303 307.441406 304.210938 306.347656 C 305.578125 305.101562 307.476562 303.050781 307.9375 302.351562 C 308.089844 302.113281 308.5 301.53125 308.839844 301.070312 C 309.199219 300.59375 309.488281 300.164062 309.488281 300.097656 C 309.488281 300.027344 309.765625 299.550781 310.085938 299.039062 C 310.414062 298.527344 310.804688 297.773438 310.960938 297.363281 C 311.128906 296.972656 311.300781 296.542969 311.371094 296.460938 C 311.691406 296.03125 312.890625 292.632812 313.402344 290.703125 C 314.203125 287.714844 315.707031 280.660156 316.253906 277.328125 C 316.390625 276.472656 316.542969 275.671875 316.59375 275.535156 C 316.75 275.160156 317.691406 269.300781 318.542969 263.324219 C 318.730469 262.007812 318.917969 260.691406 318.96875 260.417969 C 319.109375 259.632812 319.722656 254.390625 319.996094 251.621094 C 320.128906 250.257812 320.320312 248.683594 320.421875 248.121094 C 320.523438 247.554688 320.710938 245.714844 320.847656 244.019531 C 320.984375 242.332031 321.175781 240.246094 321.257812 239.410156 C 321.359375 238.554688 321.515625 236.609375 321.617188 235.054688 C 321.71875 233.5 321.875 231.585938 321.957031 230.785156 C 322.0625 229.980469 322.25 227.027344 322.386719 224.207031 C 322.539062 221.390625 322.710938 217.921875 322.8125 216.523438 C 323.582031 204.105469 323.582031 171.515625 322.8125 158.707031 C 322.726562 157.25 322.574219 154.402344 322.472656 152.386719 C 322.367188 150.371094 322.214844 147.703125 322.128906 146.492188 C 322.027344 145.261719 321.804688 142.238281 321.617188 139.746094 C 321.429688 137.25 321.242188 134.910156 321.1875 134.535156 C 321.136719 134.160156 320.984375 132.503906 320.847656 130.863281 C 320.710938 129.222656 320.558594 127.6875 320.507812 127.449219 C 320.457031 127.207031 320.269531 125.636719 320.078125 123.945312 C 319.636719 119.863281 319.089844 115.355469 318.96875 114.824219 C 318.917969 114.585938 318.730469 113.21875 318.542969 111.816406 C 317.707031 105.429688 316.152344 96.53125 314.820312 90.46875 C 314.628906 89.613281 314.324219 88.230469 314.136719 87.394531 C 313.65625 85.207031 313.09375 83.003906 312.90625 82.609375 C 312.820312 82.421875 312.667969 81.960938 312.546875 81.585938 C 312.171875 80.324219 310.273438 76.101562 309.796875 75.4375 C 309.726562 75.335938 309.183594 74.53125 308.601562 73.644531 C 307.390625 71.816406 304.28125 68.570312 302.417969 67.203125 C 298.730469 64.488281 294.628906 62.644531 289.335938 61.34375 C 288.421875 61.121094 287.511719 60.894531 286.601562 60.660156 C 285.972656 60.476562 284.707031 60.199219 281.992188 59.636719 C 281.222656 59.476562 280.453125 59.3125 279.683594 59.140625 C 276.386719 58.339844 265.660156 56.597656 258.675781 55.707031 C 257.273438 55.539062 255.890625 55.347656 255.601562 55.28125 C 255.085938 55.179688 252.613281 54.925781 247.574219 54.429688 C 246.171875 54.289062 244.242188 54.085938 243.304688 54 C 242.363281 53.898438 240.671875 53.746094 239.546875 53.640625 C 238.417969 53.558594 236.574219 53.402344 235.445312 53.316406 C 231.621094 52.992188 220.996094 52.378906 215.121094 52.121094 C 203.761719 51.625 182.785156 51.472656 169.773438 51.796875 Z M 94.515625 167.210938 C 94.617188 167.296875 95.113281 167.449219 95.605469 167.570312 C 96.53125 167.792969 97.828125 168.390625 98.800781 169.039062 C 99.570312 169.550781 101.382812 171.496094 101.738281 172.183594 C 101.910156 172.523438 102.097656 172.832031 102.148438 172.882812 C 102.203125 172.933594 102.355469 173.273438 102.492188 173.652344 C 102.609375 174.023438 102.765625 174.417969 102.851562 174.503906 C 103.070312 174.828125 103.328125 176.859375 103.328125 178.363281 C 103.328125 179.832031 103.105469 181.558594 102.816406 182.191406 C 101.894531 184.308594 101.449219 185.007812 100.289062 186.238281 C 99.210938 187.347656 98.769531 187.691406 97.300781 188.40625 C 96.101562 189.003906 95.25 189.3125 94.566406 189.378906 C 94.019531 189.449219 93.539062 189.566406 93.488281 189.636719 C 93.371094 189.84375 89.664062 189.84375 89.664062 189.636719 C 89.664062 189.566406 89.234375 189.449219 88.6875 189.378906 C 88.160156 189.3125 87.496094 189.160156 87.203125 189.039062 C 86.835938 188.871094 86.457031 188.71875 86.078125 188.578125 C 85.753906 188.460938 85.445312 188.320312 85.394531 188.269531 C 85.34375 188.203125 85.085938 188.050781 84.796875 187.910156 C 83.804688 187.417969 81.753906 185.144531 81.15625 183.898438 C 80.832031 183.230469 80.527344 182.582031 80.441406 182.445312 C 79.859375 181.285156 79.757812 175.988281 80.300781 174.761719 C 80.457031 174.433594 80.679688 173.890625 80.796875 173.5625 C 80.917969 173.242188 81.054688 172.933594 81.105469 172.882812 C 81.15625 172.832031 81.363281 172.488281 81.550781 172.113281 C 81.875 171.480469 83.90625 169.292969 84.199219 169.292969 C 84.265625 169.292969 84.421875 169.175781 84.539062 169.019531 C 84.863281 168.660156 86.519531 167.859375 87.527344 167.605469 C 88.007812 167.484375 88.535156 167.3125 88.726562 167.226562 C 88.914062 167.144531 89.375 167.054688 89.75 167.003906 C 90.757812 166.902344 94.292969 167.054688 94.515625 167.210938 Z M 280.625 179.117188 L 280.625 187.742188 L 247.488281 187.742188 L 247.488281 176.195312 L 249.332031 175.902344 C 253.414062 175.273438 255.960938 174.84375 256.113281 174.742188 C 256.214844 174.675781 257.050781 174.539062 257.992188 174.417969 C 258.929688 174.300781 259.785156 174.144531 259.871094 174.074219 C 259.972656 174.007812 260.777344 173.855469 261.664062 173.734375 C 262.550781 173.632812 263.714844 173.425781 264.226562 173.292969 C 264.738281 173.171875 265.816406 172.984375 266.617188 172.882812 C 267.421875 172.777344 268.222656 172.625 268.410156 172.554688 C 268.601562 172.472656 269.453125 172.316406 270.289062 172.199219 C 271.144531 172.09375 272.101562 171.941406 272.425781 171.839844 C 272.75 171.753906 273.980469 171.515625 275.160156 171.328125 C 276.335938 171.136719 277.875 170.882812 278.574219 170.765625 C 279.273438 170.625 280.027344 170.523438 280.246094 170.507812 L 280.625 170.488281 Z M 139.195312 186.734375 L 139.195312 196.964844 L 156.277344 196.964844 L 156.277344 212.167969 L 139.179688 212.167969 L 139.246094 228 C 139.300781 245.0625 139.265625 244.226562 140.1875 246.328125 C 140.890625 247.949219 142.867188 249.605469 144.578125 250.015625 C 144.867188 250.085938 145.191406 250.222656 145.328125 250.324219 C 145.652344 250.582031 152.570312 250.582031 152.878906 250.308594 C 153.015625 250.207031 153.628906 250.066406 154.277344 250 L 155.425781 249.878906 L 155.425781 264.859375 L 154.960938 265.066406 C 154.535156 265.253906 152.570312 265.5625 149.875 265.882812 C 146.03125 266.328125 139.027344 266.378906 138.617188 265.953125 C 138.515625 265.867188 138.242188 265.800781 137.984375 265.800781 C 137.316406 265.800781 134.550781 265.285156 134.34375 265.132812 C 134.242188 265.066406 133.78125 264.894531 133.304688 264.792969 C 132.84375 264.671875 132.382812 264.515625 132.277344 264.449219 C 132.195312 264.363281 131.800781 264.210938 131.425781 264.09375 C 131.050781 263.972656 130.707031 263.816406 130.65625 263.765625 C 130.605469 263.714844 130.296875 263.527344 129.972656 263.339844 C 128.554688 262.589844 128.128906 262.316406 127.375 261.683594 C 126.933594 261.324219 126.523438 261.019531 126.4375 261.019531 C 126.265625 261 124.96875 259.582031 123.945312 258.285156 C 123.160156 257.277344 121.996094 255.347656 121.605469 254.355469 C 121.464844 254.03125 121.3125 253.722656 121.261719 253.671875 C 121.195312 253.621094 121.023438 253.089844 120.851562 252.476562 C 120.699219 251.863281 120.492188 251.214844 120.40625 251.023438 C 120.324219 250.835938 120.117188 250.066406 119.980469 249.316406 C 119.835938 248.601562 119.683594 247.890625 119.519531 247.183594 C 119.398438 246.671875 119.316406 240.65625 119.265625 229.28125 L 119.195312 212.167969 L 109.304688 212.167969 L 109.304688 196.964844 L 119.214844 196.964844 L 119.214844 179.746094 L 120.375 179.628906 C 121.007812 179.5625 121.605469 179.441406 121.691406 179.371094 C 121.792969 179.304688 122.628906 179.152344 123.570312 179.03125 C 124.507812 178.910156 125.363281 178.738281 125.449219 178.671875 C 125.550781 178.605469 126.625 178.414062 127.839844 178.261719 C 129.070312 178.089844 130.144531 177.902344 130.230469 177.835938 C 130.332031 177.765625 130.894531 177.648438 131.511719 177.59375 C 132.3125 177.5 133.109375 177.367188 133.902344 177.203125 C 135.730469 176.828125 138.921875 176.332031 139.078125 176.417969 C 139.144531 176.449219 139.195312 181.097656 139.195312 186.734375 Z M 195.820312 195.339844 C 198.210938 195.476562 200.910156 195.785156 201.113281 195.9375 C 201.214844 196.007812 201.625 196.128906 202.054688 196.179688 C 203.027344 196.332031 205.402344 197.03125 206.835938 197.613281 C 208.03125 198.09375 210.695312 199.421875 211.105469 199.765625 C 211.242188 199.867188 211.550781 200.074219 211.789062 200.175781 C 212.027344 200.296875 212.78125 200.890625 213.445312 201.476562 C 214.113281 202.074219 214.726562 202.585938 214.8125 202.617188 C 215.070312 202.738281 218.109375 206.429688 218.109375 206.632812 C 218.109375 206.683594 218.261719 206.957031 218.453125 207.210938 C 218.808594 207.726562 220.328125 210.679688 220.328125 210.871094 C 220.328125 210.9375 220.46875 211.3125 220.652344 211.703125 C 220.824219 212.097656 221.03125 212.695312 221.097656 213.019531 C 221.167969 213.34375 221.289062 213.6875 221.355469 213.789062 C 221.421875 213.875 221.578125 214.421875 221.695312 214.984375 C 221.796875 215.546875 221.9375 216.128906 221.988281 216.265625 C 222.054688 216.402344 222.207031 217.136719 222.347656 217.890625 C 222.550781 219.015625 222.601562 223.269531 222.667969 242.089844 L 222.738281 264.945312 L 204.105469 264.945312 L 204.085938 262.929688 C 204.070312 261.835938 204.015625 260.25 203.949219 259.410156 L 203.847656 257.875 L 203.351562 258.558594 C 202.566406 259.601562 199.984375 262.058594 198.960938 262.742188 C 196.722656 264.210938 196.128906 264.566406 195.511719 264.773438 C 195.136719 264.875 194.640625 265.082031 194.402344 265.21875 C 194.144531 265.335938 193.511719 265.542969 193 265.644531 C 192.488281 265.765625 191.976562 265.917969 191.890625 265.984375 C 191.019531 266.636719 180.257812 266.621094 179.421875 265.96875 C 179.335938 265.902344 178.722656 265.75 178.054688 265.628906 C 177.40625 265.511719 176.636719 265.320312 176.347656 265.183594 C 176.074219 265.066406 175.339844 264.757812 174.742188 264.515625 C 174.054688 264.21875 173.382812 263.886719 172.726562 263.527344 C 172.273438 263.246094 171.8125 262.980469 171.34375 262.726562 C 170.625 262.332031 170.386719 262.109375 168.4375 260.160156 C 166.441406 258.164062 166.183594 257.890625 166.183594 257.703125 C 166.183594 257.636719 165.960938 257.257812 165.707031 256.867188 C 165.433594 256.472656 165.039062 255.757812 164.832031 255.292969 C 164.628906 254.816406 164.355469 254.253906 164.234375 254.011719 C 164.101562 253.773438 163.914062 253.160156 163.792969 252.648438 C 163.671875 252.132812 163.519531 251.625 163.453125 251.535156 C 163.265625 251.296875 162.9375 248.871094 162.9375 247.8125 C 162.9375 247.320312 162.855469 246.824219 162.753906 246.722656 C 162.546875 246.515625 162.597656 245.832031 163.125 241.714844 C 163.230469 240.914062 163.382812 240.179688 163.453125 240.09375 C 163.519531 239.992188 163.671875 239.546875 163.773438 239.085938 C 163.996094 238.195312 164.460938 237.035156 164.9375 236.164062 C 165.089844 235.875 165.296875 235.480469 165.398438 235.277344 C 165.5 235.054688 165.636719 234.882812 165.722656 234.882812 C 165.792969 234.882812 165.84375 234.78125 165.84375 234.660156 C 165.84375 234.472656 167.722656 232.03125 168.046875 231.808594 C 168.113281 231.757812 168.234375 231.585938 168.285156 231.417969 C 168.355469 231.226562 168.558594 231.058594 168.746094 231.007812 C 168.933594 230.957031 169.085938 230.851562 169.085938 230.78125 C 169.085938 230.613281 171.957031 228.359375 172.929688 227.792969 C 173.628906 227.367188 175.203125 226.566406 177.492188 225.472656 C 177.816406 225.300781 181.007812 224.277344 182.410156 223.882812 C 182.921875 223.730469 183.929688 223.523438 184.632812 223.421875 C 185.332031 223.304688 185.996094 223.164062 186.082031 223.097656 C 186.1875 223.03125 187.210938 222.875 188.390625 222.773438 C 189.570312 222.671875 191.019531 222.5 191.636719 222.414062 C 194.0625 222.054688 202.582031 222.125 203.488281 222.5 C 203.796875 222.636719 203.8125 222.570312 203.691406 221.117188 C 203.625 220.277344 203.507812 219.5625 203.4375 219.511719 C 203.351562 219.460938 203.25 219.136719 203.179688 218.792969 C 203.0625 218.160156 202.410156 216.777344 201.796875 215.839844 C 201.402344 215.242188 199.746094 213.53125 199.558594 213.53125 C 199.492188 213.53125 199.203125 213.363281 198.910156 213.140625 C 198.160156 212.59375 196.945312 212.046875 196.210938 211.910156 C 195.851562 211.839844 195.5625 211.722656 195.5625 211.652344 C 195.5625 210.902344 184.527344 210.78125 181.214844 211.519531 C 180.789062 211.601562 179.796875 211.789062 178.996094 211.929688 C 178.191406 212.0625 177.390625 212.25 177.203125 212.339844 C 177.011719 212.421875 176.398438 212.578125 175.835938 212.679688 C 175.273438 212.78125 174.65625 212.9375 174.46875 213.019531 C 174.28125 213.105469 173.597656 213.292969 172.949219 213.449219 C 172.300781 213.601562 171.683594 213.769531 171.582031 213.855469 C 171.480469 213.925781 171.019531 214.097656 170.539062 214.214844 C 170.078125 214.335938 169.601562 214.507812 169.515625 214.574219 C 169.414062 214.644531 168.953125 214.796875 168.488281 214.917969 C 168.011719 215.019531 167.347656 215.257812 167.003906 215.429688 C 166.644531 215.617188 166.320312 215.753906 166.269531 215.753906 C 166.21875 215.753906 166.183594 212.183594 166.183594 207.828125 C 166.183594 201.660156 166.238281 199.867188 166.40625 199.730469 C 166.527344 199.628906 167.003906 199.460938 167.464844 199.339844 C 167.945312 199.238281 168.40625 199.082031 168.488281 199.015625 C 168.59375 198.945312 169.15625 198.742188 169.773438 198.585938 C 170.386719 198.414062 170.964844 198.230469 171.050781 198.160156 C 171.15625 198.074219 171.683594 197.9375 172.230469 197.820312 C 172.796875 197.699219 173.375 197.546875 173.511719 197.460938 C 173.667969 197.394531 174.367188 197.203125 175.066406 197.050781 C 175.609375 196.945312 176.152344 196.824219 176.691406 196.691406 C 176.875 196.640625 177.832031 196.488281 178.824219 196.347656 C 179.816406 196.214844 180.855469 196.027344 181.128906 195.9375 C 182.121094 195.632812 191.070312 195.070312 193.085938 195.1875 C 193.648438 195.222656 194.878906 195.289062 195.820312 195.339844 Z M 101.617188 230.957031 L 101.617188 264.945312 L 81.636719 264.945312 L 81.636719 196.964844 L 101.617188 196.964844 Z M 252.609375 218.144531 C 252.609375 238.367188 252.699219 242.28125 253.105469 242.828125 C 253.191406 242.910156 253.296875 243.25 253.363281 243.578125 C 253.605469 244.859375 254.714844 246.722656 255.976562 247.984375 C 256.640625 248.667969 257.394531 249.265625 257.632812 249.332031 C 257.890625 249.386719 258.078125 249.488281 258.078125 249.554688 C 258.078125 249.621094 258.675781 249.863281 259.410156 250.101562 C 260.503906 250.445312 261.082031 250.511719 262.792969 250.511719 C 263.988281 250.511719 265.027344 250.425781 265.269531 250.324219 C 265.488281 250.207031 266.019531 250.035156 266.445312 249.914062 C 266.875 249.796875 267.644531 249.4375 268.15625 249.09375 C 269.109375 248.480469 270.886719 246.839844 270.886719 246.566406 C 270.886719 246.480469 271.128906 246.105469 271.398438 245.746094 C 271.691406 245.371094 271.914062 244.996094 271.914062 244.894531 C 271.914062 244.789062 272.066406 244.429688 272.238281 244.089844 C 272.425781 243.75 272.628906 243.167969 272.699219 242.808594 C 272.75 242.433594 272.867188 242.058594 272.953125 241.972656 C 273.382812 241.425781 273.449219 237.976562 273.449219 217.941406 L 273.449219 196.964844 L 293.433594 196.964844 L 293.433594 264.945312 L 283.972656 264.945312 C 276.578125 264.945312 274.457031 264.894531 274.355469 264.722656 C 274.285156 264.621094 274.203125 262.996094 274.167969 261.136719 C 274.132812 259.292969 274.046875 257.773438 273.980469 257.773438 C 273.914062 257.773438 273.707031 257.976562 273.503906 258.234375 C 272.546875 259.53125 271.042969 261 268.683594 262.945312 C 268.34375 263.21875 267.644531 263.59375 266.105469 264.347656 C 265.40625 264.6875 264.636719 265.082031 264.398438 265.203125 C 264.160156 265.320312 263.511719 265.507812 262.945312 265.628906 C 262.382812 265.75 261.886719 265.902344 261.835938 265.96875 C 261.664062 266.226562 258.640625 266.480469 255.652344 266.480469 C 252.714844 266.480469 250.324219 266.277344 249.625 265.984375 C 249.433594 265.902344 248.785156 265.695312 248.171875 265.542969 C 247.558594 265.390625 246.992188 265.183594 246.890625 265.117188 C 246.804688 265.046875 246.394531 264.875 246 264.757812 C 245.59375 264.65625 245.269531 264.5 245.269531 264.433594 C 245.269531 264.363281 244.960938 264.210938 244.585938 264.09375 C 244.210938 263.972656 243.902344 263.816406 243.902344 263.75 C 243.902344 263.683594 243.714844 263.542969 243.492188 263.441406 C 242.023438 262.777344 238.691406 259.652344 237.292969 257.636719 C 236.4375 256.40625 235.121094 253.945312 234.847656 253.039062 C 234.746094 252.683594 234.539062 252.152344 234.421875 251.878906 C 234.300781 251.589844 234.097656 250.972656 233.992188 250.511719 C 233.890625 250.035156 233.738281 249.539062 233.652344 249.367188 C 233.566406 249.214844 233.414062 248.410156 233.3125 247.574219 C 233.210938 246.753906 233.019531 245.917969 232.917969 245.730469 C 232.765625 245.472656 232.695312 239.375 232.664062 221.167969 L 232.609375 196.964844 L 252.613281 196.964844 Z M 252.609375 218.144531 "/><path style=" stroke:none;fill-rule:nonzero;fill:#ff6200;fill-opacity:1;" d="M 193.597656 234.730469 C 192.761719 234.816406 191.90625 234.953125 191.71875 235.035156 C 191.53125 235.140625 190.917969 235.292969 190.351562 235.414062 C 189.808594 235.515625 189.074219 235.71875 188.730469 235.875 C 186.167969 236.984375 184.921875 237.71875 184.070312 238.605469 C 183.25 239.460938 182.425781 241.050781 182.292969 242.039062 C 182.257812 242.382812 182.136719 242.828125 182.035156 243.011719 C 181.847656 243.40625 181.914062 244.621094 182.222656 246.207031 C 182.5625 247.933594 183.929688 250.035156 185.140625 250.667969 C 187.296875 251.777344 187.707031 251.945312 188.902344 252.136719 C 191.050781 252.457031 195.152344 252.273438 196.042969 251.792969 C 196.195312 251.707031 196.828125 251.417969 197.441406 251.144531 C 198.058594 250.855469 198.859375 250.390625 199.234375 250.101562 C 199.613281 249.8125 200.039062 249.46875 200.191406 249.351562 C 201.164062 248.617188 202.960938 245.644531 203.199219 244.414062 C 203.25 244.105469 203.386719 243.75 203.488281 243.609375 C 203.609375 243.457031 203.691406 241.886719 203.726562 239.066406 L 203.796875 234.761719 L 202.871094 234.660156 C 201.625 234.507812 195.476562 234.558594 193.597656 234.730469 Z M 193.597656 234.730469 "/></g></svg>